<svg width="1440" height="866" viewBox="0 0 1440 866" fill="none" xmlns="http://www.w3.org/2000/svg">
<rect width="1440" height="866" fill="#F7F9FC"/>
<g opacity="0.2">
<mask id="mask0_21_7880" style="mask-type:luminance" maskUnits="userSpaceOnUse" x="240" y="0" width="1200" height="866">
<path d="M240 866H1440V0H240V866Z" fill="white"/>
</mask>
<g mask="url(#mask0_21_7880)">
<g opacity="0.15">
<path d="M1824.79 221.025L1589.68 388.03L1361.54 280.37L1361.25 280.96L1589.75 388.792L1823.45 222.791L1687.06 606.801L1890.45 426.623L1889.99 426.138L1688.56 604.58L1824.79 221.025Z" fill="#01579B" fill-opacity="0.3"/>
<path d="M1602.67 250.357L1590.05 388.439L1589.37 388.38L1601.98 250.445L1361.44 280.99L1361.35 280.339L1602.04 249.775L1623.3 17.2066L1824.36 221.679L1824.82 222.149L1602.67 250.357ZM1602.73 249.688L1823.41 221.666L1623.84 18.7068L1602.73 249.688Z" fill="#01579B" fill-opacity="0.3"/>
<path d="M1361.63 280.886L1360.93 281.597L1389.49 67.2496L1389.52 67.0192L1623.5 17.6299L1624.59 17.3995L1361.63 280.886ZM1361.86 279.719L1622.55 18.5013L1390.13 67.5614L1361.86 279.719Z" fill="#01579B" fill-opacity="0.3"/>
<path d="M1623.64 17.6297L1196.54 -69.6512L1388.84 66.9948L1060.85 78.0558L1060.87 78.7124L1390.81 67.5855L1199.47 -68.3797L1623.5 18.2707L1623.64 17.6297Z" fill="#01579B" fill-opacity="0.3"/>
<path d="M1611.83 146.517L1460.62 180.677L1061.48 78.2035L1198.25 -68.7966L1331.72 -193.309L1389.49 67.359L1390.15 67.2205L1332.13 -194.598L1331.69 -194.191L1197.77 -69.2541L1060.24 78.5621L1060.77 78.7007L1460.61 181.354L1611.98 147.156L1611.83 146.517Z" fill="#01579B" fill-opacity="0.3"/>
<path d="M1603.48 250.334L1461.2 181.222L1461.51 180.635L1603.3 249.511L1796.36 17.6379L1623.57 18.2737H1623.46L1331.85 -193.603L1119.43 -145.958L1199.04 -68.4719L974.232 -114.066L1118.09 -146.331L1013.25 -248.359L1013.73 -248.823L1118.86 -146.506L1331.85 -194.277L1332.01 -194.312L1623.68 17.6154L1797.07 16.9779L1797.78 16.9744L1603.48 250.334ZM977.379 -114.102L1196.97 -69.5668L1118.65 -145.787L977.379 -114.102Z" fill="#01579B" fill-opacity="0.3"/>
<path d="M1332.27 -193.942L1332.25 -193.562L1013.73 -248.213L976.161 -114.103L1061.17 78.2553L1060.55 78.5151L975.495 -113.949L854.067 -388.079L1013.59 -248.946L1335.88 -317.282L1336.31 -317.372L1332.27 -193.942ZM1331.6 -194.342L1335.6 -316.549L1015.23 -248.622L1331.6 -194.342ZM975.732 -115.071L1013.11 -248.478L855.901 -385.595L975.732 -115.071Z" fill="#01579B" fill-opacity="0.3"/>
<path d="M965.969 214.076L969.589 89.0225L837.355 103.947L976.177 -115.289L970.285 88.2828L1061.56 77.9805L965.969 214.076ZM966.711 211.857L1060.16 78.7999L970.268 88.9463L966.711 211.857ZM969.608 88.359L975.432 -112.859L838.663 103.138L969.608 88.359Z" fill="#01579B" fill-opacity="0.3"/>
<path d="M1733.66 474.218L1814.3 386.627L1589.71 388.737L1589.52 388.738L1389.04 66.6654L1824.19 221.581L1957.82 231.72L1815.82 385.955L2033.69 383.909L1733.66 474.218ZM1735.79 472.889L2029.08 384.609L1815.21 386.618L1735.79 472.889ZM1589.9 388.077L1814.91 385.963L1956.41 232.271L1824.09 222.232L1824.05 222.229L1390.61 67.9248L1589.9 388.077Z" fill="#01579B" fill-opacity="0.3"/>
<path d="M838.244 103.853L1198.2 -68.7295L1197.9 -69.3183L837.945 103.265L838.244 103.853Z" fill="#01579B" fill-opacity="0.3"/>
<path d="M1217.19 -450.574L1012.41 -246.318L1012.9 -245.859L1216.44 -448.878L1209.02 -290.134L1209.1 -290.131C1208.97 -289.464 1208.86 -287.361 1208.5 -280.634C1208.18 -274.588 1207.74 -265.949 1207.2 -255.586C1206.13 -234.857 1204.71 -207.219 1203.3 -179.581C1200.48 -124.307 1197.67 -69.033 1197.67 -69.033L1197.66 -68.9134L1197.74 -68.8181L1375.92 158.194L975.874 -114.434L975.726 -114.4L872.1 -90.1625L969.64 88.7996L970.237 88.4913L873.105 -89.7224L975.737 -113.728L1379.11 161.165L1198.35 -69.1196C1198.66 -75.1793 1209.13 -281.218 1209.68 -289.807H1209.69L1209.7 -290.105L1217.19 -450.574Z" fill="#01579B" fill-opacity="0.3"/>
<path d="M2015.47 -22.3974L1797.77 16.8542L1936.83 -196.118L1936.16 -196.071L1655.36 -176.648L1655.28 -176.464L1525.96 114.93L1333.69 -317.898L1333.07 -317.637L1525.96 116.587L1526.27 115.889L1655.82 -176.021L1935.54 -195.369L1796.37 17.7741L1797.13 17.6372L2013.87 -21.4411L1823.74 221.838L1823.79 222.001L1945.83 599.508L1946.18 598.635L2031.87 383.951L2031.23 383.714L1945.9 597.524L1824.49 221.966L2015.47 -22.3974Z" fill="#01579B" fill-opacity="0.3"/>
<path d="M1248.58 72.1687L1249.22 71.9497L1198.68 -69.2376L1198.05 -69.0186L1248.58 72.1687Z" fill="#01579B" fill-opacity="0.3"/>
<path d="M1060.57 78.3942L1061.24 78.3013L1014.21 -248.736L1013.54 -248.643L1060.57 78.3942Z" fill="#01579B" fill-opacity="0.3"/>
<path d="M1307.45 70.1041L1332.25 -193.935L1331.58 -193.994L1306.78 70.0443L1307.45 70.1041Z" fill="#01579B" fill-opacity="0.3"/>
<path d="M1364.06 284.049C1367.69 280.883 1364.89 275.561 1360.13 276.566C1359.61 276.675 1359.12 276.917 1358.73 277.26C1355.1 280.427 1357.89 285.747 1362.66 284.742C1363.18 284.635 1363.67 284.392 1364.06 284.049Z" fill="#01579B" fill-opacity="0.3"/>
<path d="M1392.41 70.9344C1396.04 67.7677 1393.24 62.4459 1388.47 63.4524C1387.96 63.5615 1387.47 63.8041 1387.08 64.1471C1383.45 67.3138 1386.24 72.6338 1391.01 71.6291C1391.53 71.5199 1392.02 71.2757 1392.41 70.9344Z" fill="#01579B" fill-opacity="0.3"/>
<path d="M1380.18 163.067C1383.81 159.9 1381.01 154.578 1376.24 155.585C1375.73 155.694 1375.24 155.936 1374.85 156.279C1371.22 159.446 1374.01 164.766 1378.78 163.761C1379.29 163.652 1379.78 163.41 1380.18 163.067Z" fill="#01579B" fill-opacity="0.3"/>
<path d="M1309.85 73.46C1313.48 70.2932 1310.68 64.9714 1305.91 65.9779C1305.4 66.0871 1304.91 66.3296 1304.52 66.6726C1300.88 69.8393 1303.68 75.1611 1308.45 74.1546C1308.96 74.0454 1309.45 73.8012 1309.85 73.46Z" fill="#01579B" fill-opacity="0.3"/>
<path d="M1251.58 75.4313C1255.21 72.2645 1252.42 66.9427 1247.65 67.9475C1247.13 68.0566 1246.64 68.2992 1246.25 68.6422C1242.62 71.8089 1245.41 77.129 1250.18 76.1242C1250.7 76.0151 1251.19 75.7725 1251.58 75.4313Z" fill="#01579B" fill-opacity="0.3"/>
<path d="M1140.04 -0.661021C1143.68 -3.82776 1140.88 -9.14955 1136.11 -8.14478C1135.6 -8.03564 1135.11 -7.79311 1134.71 -7.45011C1131.08 -4.28337 1133.88 1.03667 1138.65 0.0319078C1139.16 -0.0754978 1139.65 -0.319748 1140.04 -0.661021Z" fill="#01579B" fill-opacity="0.3"/>
<path d="M1063.53 81.765C1067.16 78.5982 1064.36 73.2782 1059.6 74.283C1059.08 74.3921 1058.59 74.6346 1058.2 74.9776C1054.57 78.1444 1057.36 83.4644 1062.13 82.4596C1062.64 82.3505 1063.13 82.108 1063.53 81.765Z" fill="#01579B" fill-opacity="0.3"/>
<path d="M969.272 214.713C972.904 211.546 970.106 206.224 965.339 207.231C964.824 207.34 964.334 207.582 963.942 207.926C960.311 211.092 963.108 216.414 967.875 215.408C968.39 215.298 968.88 215.054 969.272 214.713Z" fill="#01579B" fill-opacity="0.3"/>
<path d="M972.167 91.8909C975.798 88.7242 973.001 83.4042 968.234 84.4089C967.719 84.5181 967.229 84.7606 966.837 85.1036C963.205 88.2703 966.003 93.5904 970.77 92.5856C971.285 92.4765 971.775 92.2322 972.167 91.8909Z" fill="#01579B" fill-opacity="0.3"/>
<path d="M840.676 106.914C844.308 103.748 841.51 98.4276 836.744 99.4324C836.229 99.5415 835.739 99.784 835.345 100.127C831.715 103.294 834.511 108.614 839.278 107.609C839.793 107.5 840.283 107.257 840.676 106.914Z" fill="#01579B" fill-opacity="0.3"/>
</g>
</g>
<mask id="mask1_21_7880" style="mask-type:luminance" maskUnits="userSpaceOnUse" x="0" y="0" width="1440" height="866">
<path d="M0 866H1440V0H0V866Z" fill="white"/>
</mask>
<g mask="url(#mask1_21_7880)">
<path d="M260.137 621.577L260.595 622.516L358.336 823.309L358.212 823.487L242.911 989.097L242.957 988.109L260.137 621.577ZM357.67 823.241L260.58 623.786L243.546 987.158L357.67 823.241Z" fill="#01579B" fill-opacity="0.3"/>
<path d="M260.516 622.422L547.301 868.767L358.722 823.791L531.261 1065.86L530.848 1066.28L357.282 822.777L544.922 867.531L260.2 622.958L260.516 622.422Z" fill="#01579B" fill-opacity="0.3"/>
<path d="M188.254 718.174L250.047 849.453L530.824 1065.51L545.841 868.123L548.927 688.329L358.142 823.57L357.864 823.004L549.492 687.167L549.482 687.754L546.386 868.159L531.286 1066.64L530.908 1066.35L249.64 849.919L187.779 718.498L188.254 718.174Z" fill="#01579B" fill-opacity="0.3"/>
<path d="M165.72 497.426L166.107 497.937L260.5 622.373L549.384 687.435L549.448 687.567L636.703 872.252L756.667 878.141L756.645 878.797L637.021 872.926L695.954 997.664L545.211 867.762L636.06 872.221L549.035 688.024L260.219 622.978L260.158 622.896L166.091 498.889L130.011 794.023L249.588 848.777L249.394 849.39L129.407 794.449L165.72 497.426ZM636.378 872.895L547.014 868.509L694.252 995.389L636.378 872.895Z" fill="#01579B" fill-opacity="0.3"/>
<path d="M622.196 601.017L622.373 601.381L756.821 878.171L929 898.02L695.193 996.851L531.145 1066.38L530.964 1065.76L694.922 996.269L756.293 878.562L548.794 687.773L549.019 687.508L622.196 601.017ZM755.722 877.211L622.079 602.078L549.626 687.713L755.722 877.211ZM926.48 898.389L756.798 878.829L695.749 995.921L926.48 898.389Z" fill="#01579B" fill-opacity="0.3"/>
<path d="M-187.342 577.241L-69.4962 734.441L-52.9195 528.418L26.3236 617.123L358.818 823.413L52.513 898.176L52.4096 898.037L-69.0719 735.986L-78.4864 852.989L-187.342 577.241ZM-69.5681 735.328L-185.249 581.014L-78.8401 850.567L-69.5681 735.328ZM357.189 823.141L26.0071 617.665L25.9798 617.634L-52.4838 529.802L-69.0029 735.101L52.7086 897.457L357.189 823.141Z" fill="#01579B" fill-opacity="0.3"/>
<path d="M219.713 254.416L220.254 254.329L245.609 485.633L362.145 467.774L260.172 623.51L245.139 486.367L166.006 498.494L26.3217 617.676L26.0067 617.14L165.802 497.865L245.067 485.717L219.713 254.416ZM360.892 468.628L245.681 486.284L260.546 621.882L360.892 468.628Z" fill="#01579B" fill-opacity="0.3"/>
<path d="M768.663 595.977L755.855 880.781L755.309 880.746L768.04 597.666L675.137 710.491L675.091 710.436C674.759 710.985 673.535 712.49 669.62 717.299C666.101 721.623 661.072 727.794 655.033 735.196C642.958 750.002 626.851 769.734 610.744 789.464C578.528 828.923 546.305 868.372 546.305 868.372L546.235 868.457L546.135 868.469L310.079 894.792L695.279 996.244L695.34 996.374L737.184 1086.9L574.56 1138.36L574.422 1137.72L736.366 1086.48L694.924 996.821L306.526 894.526L545.987 867.825C549.52 863.501 669.633 716.45 674.582 710.245L674.578 710.238L674.752 710.027L768.663 595.977Z" fill="#01579B" fill-opacity="0.3"/>
<path d="M70.7713 315.086L165.803 497.367L219.859 253.66L220.197 254.169L361.835 468.152L361.767 468.334L254.488 758.191L623.947 602.536L624.127 603.156L253.475 759.314L253.731 758.619L361.202 468.249L220.108 255.087L166.007 498.992L165.674 498.354L71.0605 316.875L26.4088 617.633L26.2808 617.704L-271 786.118L-270.658 785.278L-186.376 578.588L-185.887 578.877L-269.825 784.727L25.9212 617.183L70.7713 315.086Z" fill="#01579B" fill-opacity="0.3"/>
<path d="M401.711 884.478L549.402 687.915L548.998 687.474L401.307 884.037L401.711 884.478Z" fill="#01579B" fill-opacity="0.3"/>
<path d="M360.981 467.096L549.337 687.425L881.405 746.907L880.963 747.374L756.915 878.636L737.124 1085.92L927.568 897.942L927.913 898.449L736.427 1087.46L756.397 878.311L756.476 878.226L880.162 747.347L549.084 688.043L549.021 687.969L362.057 469.271L432.711 770.413L432.186 770.591L360.981 467.096Z" fill="#01579B" fill-opacity="0.3"/>
<path d="M354.365 823.928C354.314 819.185 359.096 817.581 361.086 821.674C361.3 822.116 361.42 822.631 361.425 823.142C361.476 827.885 356.697 829.487 354.705 825.395C354.49 824.954 354.371 824.439 354.365 823.928Z" fill="#01579B" fill-opacity="0.3"/>
<path d="M429.104 770.815C429.052 766.072 433.832 764.468 435.824 768.559C436.039 769.001 436.158 769.516 436.164 770.027C436.215 774.77 431.435 776.374 429.443 772.282C429.229 771.841 429.109 771.326 429.104 770.815Z" fill="#01579B" fill-opacity="0.3"/>
<path d="M545.679 688.156C545.626 683.411 550.408 681.807 552.399 685.9C552.614 686.342 552.733 686.857 552.739 687.368C552.791 692.111 548.011 693.715 546.018 689.623C545.804 689.181 545.684 688.667 545.679 688.156Z" fill="#01579B" fill-opacity="0.3"/>
</g>
<mask id="mask2_21_7880" style="mask-type:luminance" maskUnits="userSpaceOnUse" x="0" y="0" width="1440" height="866">
<path d="M0 866H1440V0H0V866Z" fill="white"/>
</mask>
<g mask="url(#mask2_21_7880)">
<g opacity="0.15">
<path d="M1032.93 946.705L700.84 734.928L927.766 719.786L927.858 719.983L1032.93 946.705ZM702.866 735.451L1031.44 944.984L927.386 720.47L702.866 735.451Z" fill="#01579B" fill-opacity="0.3"/>
<path d="M661.193 1015.24L701.516 735.343L512.686 588.547L513.059 588.019L702.191 735.05L662.112 1013.27L928.185 718.044L863.121 976.696L862.517 976.528L926.952 720.367L661.193 1015.24Z" fill="#01579B" fill-opacity="0.3"/>
<path d="M662.158 1014.75L661.564 1014.57L402.518 935.904L589.968 809.975L512.578 588.398L513.166 588.172L590.508 809.611L701.683 734.922L702.021 735.475L590.729 810.243L662.158 1014.75ZM404.02 935.677L661.144 1013.76L590.188 810.607L404.02 935.677Z" fill="#01579B" fill-opacity="0.3"/>
<path d="M403.242 936.923L402.967 935.873L344.368 711.371L344.55 711.238L513.467 587.444L513.171 588.383L403.242 936.923ZM345.09 711.646L403.299 934.652L512.281 589.116L345.09 711.646Z" fill="#01579B" fill-opacity="0.3"/>
<path d="M403.029 936.007L146.096 608.306L344.056 710.805L212.747 423.022L213.311 422.738L345.402 712.235L148.428 610.244L403.513 935.59L403.029 936.007Z" fill="#01579B" fill-opacity="0.3"/>
<path d="M506.899 866.181L470.925 720.06L213.143 423.491L147.553 609.379L99.5553 782.02L344.644 711.194L344.811 711.828L98.6404 782.966L98.7956 782.401L146.96 609.173L212.912 422.251L213.259 422.649L471.493 719.738L507.505 866.016L506.899 866.181Z" fill="#01579B" fill-opacity="0.3"/>
<path d="M477.159 1086.38L476.857 1085.76L403.038 936.037L98.8299 782.722L98.7935 782.575L47.8282 576.912L-83.7391 533.648L-83.5525 533.021L47.6416 576.163L13.2186 437.257L148.167 609.908L48.5318 577.144L99.3634 782.265L403.498 935.541L403.546 935.638L477.108 1084.84L590.29 811.167L471.268 720.841L471.635 720.309L591.064 810.946L477.159 1086.38ZM48.3468 576.396L146.353 608.624L14.5432 439.987L48.3468 576.396Z" fill="#01579B" fill-opacity="0.3"/>
<path d="M888.452 1119.91L796.75 931.204L727.288 1124.95L661.41 1014.47L343.86 711.128L702.051 734.884L702.132 735.05L796.664 929.579L836.113 819.551L888.452 1119.91ZM797.049 930.371L887.066 1115.61L835.901 822L797.049 930.371ZM345.599 711.901L661.896 1014.05L661.919 1014.08L727.149 1123.47L796.365 930.411L701.655 735.516L345.599 711.901Z" fill="#01579B" fill-opacity="0.3"/>
<path d="M-167.001 802.362L-82.1857 531.369L-81.591 531.573L-165.893 800.926L-34.9017 721.085L-34.8637 721.153C-34.3599 720.727 -32.6291 719.658 -27.0945 716.24C-22.1199 713.168 -15.013 708.784 -6.48244 703.528C10.5787 693.014 33.3313 679.005 56.0839 665C101.591 636.99 147.103 608.992 147.103 608.992L147.202 608.931L147.314 608.952L415.6 657.478L13.6128 438.854L13.5781 438.71L-10.3769 338.187L182.711 339.443L182.708 340.1L-9.57256 338.849L14.1528 438.406L419.475 658.844L147.321 609.619C142.331 612.689 -27.3192 717.054 -34.3451 721.496L-34.3418 721.504L-34.5862 721.655L-167.001 802.362Z" fill="#01579B" fill-opacity="0.3"/>
<path d="M537.233 1292.21L477.048 1086.43L356.682 1304.82L356.434 1304.22L252.429 1053.24L252.548 1053.08L443.373 806.803L-4.90529 841.372L-4.94985 840.717L444.776 806.036L444.318 806.626L253.154 1053.34L356.761 1303.37L477.225 1084.8L477.435 1085.52L537.357 1290.39L661.437 1013.97L661.596 1013.94L1033 944.442L1032.41 945.145L887.709 1118.32L887.239 1117.89L1031.35 945.417L661.867 1014.56L537.233 1292.21Z" fill="#01579B" fill-opacity="0.3"/>
<path d="M836 821.122L836.025 820.458L590.898 810.217L590.873 810.881L836 821.122Z" fill="#01579B" fill-opacity="0.3"/>
<path d="M661.973 1014.37L741.931 817.306L741.355 817.049L661.397 1014.11L661.973 1014.37Z" fill="#01579B" fill-opacity="0.3"/>
<path d="M669.238 1249L476.799 1085.75L476.826 1085.57L506.616 868.178L386.116 1072.64L385.584 1072.29L507.665 865.151L477.47 1085.48L668.568 1247.59L661.322 1013.75L661.777 1013.96L887.6 1117.81L887.347 1118.41L661.98 1014.77L669.238 1249Z" fill="#01579B" fill-opacity="0.3"/>
<path d="M99.3372 782.774L311.839 639.235L311.5 638.683L98.9983 782.222L99.3372 782.774Z" fill="#01579B" fill-opacity="0.3"/>
<path d="M475.221 720.631C474.101 725.225 468.406 725.277 467.211 720.705C467.082 720.21 467.077 719.675 467.197 719.177C468.317 714.585 474.01 714.533 475.208 719.103C475.338 719.598 475.342 720.134 475.221 720.631Z" fill="#01579B" fill-opacity="0.3"/>
<path d="M516.883 588.997C515.764 593.591 510.069 593.643 508.873 589.07C508.744 588.574 508.739 588.039 508.86 587.542C509.98 582.949 515.673 582.897 516.87 587.467C517.001 587.963 517.006 588.5 516.883 588.997Z" fill="#01579B" fill-opacity="0.3"/>
<path d="M564.932 726.572C563.813 731.164 558.118 731.216 556.922 726.645C556.793 726.149 556.788 725.614 556.909 725.117C558.029 720.524 563.724 720.472 564.919 725.044C565.048 725.539 565.053 726.075 564.932 726.572Z" fill="#01579B" fill-opacity="0.3"/>
<path d="M705.865 735.93C704.745 740.523 699.05 740.575 697.854 736.003C697.725 735.508 697.72 734.972 697.841 734.475C698.961 729.883 704.656 729.831 705.851 734.402C705.982 734.896 705.985 735.433 705.865 735.93Z" fill="#01579B" fill-opacity="0.3"/>
<path d="M931.346 720.621C930.226 725.214 924.533 725.266 923.335 720.694C923.206 720.198 923.201 719.663 923.322 719.166C924.442 714.572 930.137 714.52 931.332 719.093C931.461 719.587 931.466 720.122 931.346 720.621Z" fill="#01579B" fill-opacity="0.3"/>
<path d="M840.018 821.499C838.898 826.091 833.203 826.143 832.008 821.571C831.879 821.076 831.874 820.541 831.994 820.043C833.114 815.451 838.809 815.399 840.005 819.971C840.135 820.464 840.138 821.001 840.018 821.499Z" fill="#01579B" fill-opacity="0.3"/>
<path d="M745.601 817.893C744.481 822.488 738.786 822.538 737.591 817.966C737.462 817.471 737.457 816.935 737.577 816.438C738.697 811.846 744.392 811.794 745.588 816.366C745.718 816.861 745.721 817.396 745.601 817.893Z" fill="#01579B" fill-opacity="0.3"/>
<path d="M694.413 814.682C693.293 819.275 687.598 819.327 686.402 814.755C686.274 814.259 686.269 813.724 686.389 813.227C687.509 808.635 693.204 808.583 694.399 813.154C694.53 813.65 694.535 814.185 694.413 814.682Z" fill="#01579B" fill-opacity="0.3"/>
<path d="M510.867 867.197C509.747 871.789 504.054 871.841 502.857 867.271C502.726 866.776 502.723 866.24 502.844 865.743C503.963 861.149 509.658 861.097 510.854 865.67C510.983 866.162 510.988 866.699 510.867 867.197Z" fill="#01579B" fill-opacity="0.3"/>
<path d="M448.134 807.317C447.014 811.91 441.321 811.962 440.123 807.392C439.995 806.896 439.99 806.361 440.11 805.864C441.23 801.27 446.925 801.218 448.12 805.791C448.249 806.283 448.254 806.82 448.134 807.317Z" fill="#01579B" fill-opacity="0.3"/>
<path d="M348.913 712.057C347.793 716.65 342.096 716.702 340.902 712.128C340.773 711.633 340.768 711.098 340.891 710.6C342.012 706.01 347.705 705.958 348.901 710.529C349.03 711.023 349.035 711.56 348.913 712.057Z" fill="#01579B" fill-opacity="0.3"/>
<path d="M421.552 658.868C420.433 663.463 414.738 663.515 413.542 658.941C413.413 658.446 413.408 657.91 413.529 657.413C414.649 652.821 420.342 652.769 421.539 657.339C421.67 657.834 421.675 658.371 421.552 658.868Z" fill="#01579B" fill-opacity="0.3"/>
<path d="M315.654 639.715C314.534 644.308 308.839 644.361 307.644 639.788C307.515 639.293 307.51 638.757 307.63 638.26C308.75 633.666 314.445 633.616 315.641 638.187C315.771 638.683 315.776 639.218 315.654 639.715Z" fill="#01579B" fill-opacity="0.3"/>
<path d="M896.743 857.722C895.623 862.316 889.928 862.368 888.732 857.795C888.604 857.299 888.599 856.764 888.719 856.267C889.839 851.674 895.532 851.622 896.73 856.192C896.86 856.689 896.865 857.225 896.743 857.722Z" fill="#01579B" fill-opacity="0.3"/>
<path d="M594.893 811.252C593.773 815.846 588.079 815.896 586.883 811.325C586.754 810.829 586.749 810.294 586.87 809.797C587.989 805.204 593.684 805.152 594.88 809.724C595.01 810.219 595.015 810.755 594.893 811.252Z" fill="#01579B" fill-opacity="0.3"/>
</g>
</g>
<mask id="mask3_21_7880" style="mask-type:luminance" maskUnits="userSpaceOnUse" x="0" y="0" width="1440" height="866">
<path d="M0 866H1440V0H0V866Z" fill="white"/>
</mask>
<g mask="url(#mask3_21_7880)">
<path d="M496.008 -51.7837L804.287 150.362L597.451 172.025L597.362 171.83L496.008 -51.7837ZM802.425 149.898L497.414 -50.1051L597.78 171.332L802.425 149.898Z" fill="#01579B" fill-opacity="0.3"/>
<path d="M833.794 -130.986L803.66 149.968L979.579 291.278L979.25 291.816L803.051 150.28L833.002 -128.985L597.109 173.779L650.34 -86.6467L650.897 -86.4977L598.179 171.422L833.794 -130.986Z" fill="#01579B" fill-opacity="0.3"/>
<path d="M832.924 -130.47L833.47 -130.307L1071.87 -59.1177L903.727 72.1564L979.681 291.423L979.15 291.666L903.243 72.534L803.516 150.393L803.194 149.851L903.027 71.9104L832.924 -130.47ZM1070.51 -58.8457L833.873 -129.507L903.512 71.531L1070.51 -58.8457Z" fill="#01579B" fill-opacity="0.3"/>
<path d="M1071.19 -60.1301L1071.47 -59.089L1130.33 163.643L1130.17 163.781L978.892 292.388L979.139 291.44L1071.19 -60.1301ZM1129.67 163.39L1071.19 -57.859L979.938 290.681L1129.67 163.39Z" fill="#01579B" fill-opacity="0.3"/>
<path d="M1071.41 -59.1829L1313.83 261.007L1130.63 164.238L1257.4 448.137L1256.89 448.437L1129.37 162.847L1311.65 259.136L1070.98 -58.7517L1071.41 -59.1829Z" fill="#01579B" fill-opacity="0.3"/>
<path d="M978.234 13.5793L1014.57 158.608L1257.02 447.654L1312.47 259.949L1352.17 85.9915L1130.08 163.84L1129.92 163.213L1352.99 85.0197L1352.86 85.5896L1313.02 260.138L1257.26 448.886L1256.93 448.498L1014.06 158.948L977.685 13.7595L978.234 13.5793Z" fill="#01579B" fill-opacity="0.3"/>
<path d="M1000.13 -207.369L1000.42 -206.762L1071.4 -59.2182L1352.82 85.2893L1352.86 85.4348L1404.3 289.556L1525.46 329.019L1525.31 329.651L1404.49 290.299L1439.24 428.165L1311.9 259.458L1403.65 289.344L1352.34 85.7639L1070.99 -58.7089L1070.94 -58.8041L1000.21 -205.839L903.403 70.9904L1014.23 157.859L1013.91 158.401L902.7 71.233L1000.13 -207.369ZM1403.84 290.088L1313.58 260.69L1437.96 425.472L1403.84 290.088Z" fill="#01579B" fill-opacity="0.3"/>
<path d="M1257.17 447.485L1286.95 530.005L1439.37 425.896L1329.82 650.511L1286.67 530.958L1193.04 594.911L1257.17 447.485ZM1286.45 530.345L1257.12 449.067L1194.42 593.202L1286.45 530.345ZM1329.9 649.008L1437.83 427.714L1287.17 530.619L1329.9 649.008Z" fill="#01579B" fill-opacity="0.3"/>
<path d="M623.792 -229.084L712.029 -43.0848L770.826 -238.752L833.616 -130.213L1130.8 163.882L803.181 150.436L803.103 150.271L712.145 -41.4651L678.754 69.6564L623.792 -229.084ZM711.775 -42.2446L625.161 -224.827L678.888 67.2017L711.775 -42.2446ZM1129.2 163.16L833.181 -129.775L833.16 -129.813L770.989 -237.283L712.398 -42.3035L803.528 149.795L1129.2 163.16Z" fill="#01579B" fill-opacity="0.3"/>
<path d="M1595.07 58.012L1524.1 331.342L1523.55 331.155L1594.1 59.4793L1476.4 143.056L1476.36 142.989C1475.91 143.429 1474.36 144.548 1469.39 148.124C1464.92 151.337 1458.53 155.924 1450.87 161.425C1435.54 172.425 1415.1 187.082 1394.66 201.736C1353.78 231.046 1312.89 260.34 1312.89 260.34L1312.8 260.404L1312.7 260.387L1066.58 219.595L1438.84 426.576L1438.87 426.718L1463.14 526.514L1286.81 530.81L1286.8 530.154L1462.4 525.875L1438.36 427.037L1063.01 218.343L1312.68 259.723C1317.16 256.512 1469.57 147.306 1475.88 142.663L1475.88 142.656L1476.1 142.499L1595.07 58.012Z" fill="#01579B" fill-opacity="0.3"/>
<path d="M940.365 -411.404L1000.23 -207.437L1104.92 -429.206L1105.16 -428.615L1206.12 -180.712L1206.01 -180.553L1037.65 71.1209L1446.14 23.6719L1446.19 24.3267L1036.39 71.9282L1036.8 71.3236L1205.45 -180.796L1104.88 -427.747L1000.11 -205.799L999.899 -206.512L940.296 -409.585L833.602 -129.696L833.457 -129.662L496 -49.5095L496.521 -50.2302L624.509 -227.505L624.949 -227.086L497.482 -50.5315L833.196 -130.272L940.365 -411.404Z" fill="#01579B" fill-opacity="0.3"/>
<path d="M902.895 71.9568L902.902 71.2925L678.848 68.1018L678.841 68.7662L902.895 71.9568Z" fill="#01579B" fill-opacity="0.3"/>
<path d="M765.447 69.4827L833.707 -129.827L833.175 -130.068L764.915 69.2421L765.447 69.4827Z" fill="#01579B" fill-opacity="0.3"/>
<path d="M1184.51 285.843L1312.78 260.383L1312.68 259.736L1184.41 285.196L1184.51 285.843Z" fill="#01579B" fill-opacity="0.3"/>
<path d="M1162.13 235.388L1352.72 85.752L1352.4 85.21L1161.8 234.846L1162.13 235.388Z" fill="#01579B" fill-opacity="0.3"/>
<path d="M1205.46 -181.967L1352.77 85.2443L1679.38 236.47L1678.83 236.801L1525.62 329.549L1463.28 525.542L1695.75 396.314L1696 396.904L1462.26 526.839L1525.15 329.086L1525.25 329.027L1678.02 236.549L1352.39 85.7744L1352.34 85.6843L1206.11 -179.549L1216.94 133.14L1216.37 133.165L1205.46 -181.967Z" fill="#01579B" fill-opacity="0.3"/>
<path d="M1010.63 158.189C1011.54 153.56 1016.75 153.346 1017.95 157.884C1018.08 158.373 1018.09 158.908 1017.99 159.405C1017.08 164.032 1011.88 164.247 1010.68 159.71C1010.55 159.222 1010.53 158.688 1010.63 158.189Z" fill="#01579B" fill-opacity="0.3"/>
<path d="M975.732 290.941C976.643 286.312 981.847 286.098 983.046 290.638C983.176 291.127 983.192 291.662 983.094 292.159C982.183 296.784 976.981 297.001 975.781 292.462C975.651 291.974 975.634 291.44 975.732 290.941Z" fill="#01579B" fill-opacity="0.3"/>
<path d="M928.577 154.82C929.49 150.193 934.691 149.978 935.891 154.517C936.02 155.005 936.037 155.54 935.939 156.039C935.028 160.666 929.826 160.881 928.625 156.343C928.496 155.852 928.479 155.319 928.577 154.82Z" fill="#01579B" fill-opacity="0.3"/>
<path d="M799.673 149.525C800.584 144.898 805.787 144.683 806.986 149.222C807.116 149.71 807.133 150.246 807.035 150.743C806.123 155.37 800.92 155.586 799.721 151.046C799.591 150.557 799.575 150.024 799.673 149.525Z" fill="#01579B" fill-opacity="0.3"/>
<path d="M594.161 171.314C595.072 166.687 600.274 166.472 601.475 171.009C601.604 171.498 601.621 172.033 601.523 172.532C600.612 177.159 595.409 177.375 594.209 172.835C594.08 172.346 594.063 171.813 594.161 171.314Z" fill="#01579B" fill-opacity="0.3"/>
<path d="M675.139 67.833C676.05 63.2059 681.251 62.9893 682.452 67.5298C682.582 68.02 682.599 68.5536 682.5 69.0525C681.589 73.6796 676.388 73.8945 675.187 69.3557C675.059 68.8654 675.04 68.3319 675.139 67.833Z" fill="#01579B" fill-opacity="0.3"/>
<path d="M761.434 68.7322C762.346 64.1051 767.547 63.8903 768.748 68.429C768.878 68.9193 768.894 69.4528 768.796 69.9517C767.884 74.5788 762.683 74.7954 761.483 70.2549C761.353 69.7647 761.336 69.2311 761.434 68.7322Z" fill="#01579B" fill-opacity="0.3"/>
<path d="M808.25 70.4727C809.161 65.8456 814.364 65.629 815.564 70.1695C815.693 70.658 815.71 71.1934 815.612 71.6905C814.701 76.3176 809.497 76.5342 808.298 71.9937C808.168 71.5052 808.152 70.9716 808.25 70.4727Z" fill="#01579B" fill-opacity="0.3"/>
<path d="M1033.29 70.7272C1034.21 66.1001 1039.41 65.8852 1040.61 70.4222C1040.74 70.9125 1040.75 71.4461 1040.66 71.945C1039.75 76.5739 1034.54 76.7887 1033.34 72.2499C1033.21 71.7597 1033.2 71.2261 1033.29 70.7272Z" fill="#01579B" fill-opacity="0.3"/>
<path d="M1126.16 163.125C1127.08 158.498 1132.28 158.283 1133.48 162.823C1133.61 163.314 1133.62 163.847 1133.53 164.346C1132.61 168.971 1127.41 169.186 1126.21 164.647C1126.08 164.157 1126.07 163.624 1126.16 163.125Z" fill="#01579B" fill-opacity="0.3"/>
<path d="M1213.19 132.505C1214.1 127.878 1219.3 127.663 1220.5 132.202C1220.63 132.692 1220.65 133.225 1220.55 133.724C1219.64 138.352 1214.44 138.566 1213.24 134.028C1213.11 133.537 1213.09 133.004 1213.19 132.505Z" fill="#01579B" fill-opacity="0.3"/>
<path d="M1061.11 218.364C1062.02 213.737 1067.22 213.521 1068.42 218.061C1068.55 218.55 1068.57 219.085 1068.47 219.582C1067.56 224.209 1062.36 224.424 1061.16 219.885C1061.03 219.399 1061.01 218.863 1061.11 218.364Z" fill="#01579B" fill-opacity="0.3"/>
<path d="M1158.26 234.471C1159.17 229.844 1164.37 229.628 1165.57 234.168C1165.7 234.657 1165.72 235.192 1165.62 235.689C1164.71 240.316 1159.51 240.533 1158.31 235.992C1158.18 235.504 1158.16 234.968 1158.26 234.471Z" fill="#01579B" fill-opacity="0.3"/>
<path d="M1180.78 284.906C1181.69 280.277 1186.89 280.062 1188.09 284.601C1188.22 285.091 1188.24 285.624 1188.14 286.122C1187.23 290.749 1182.03 290.964 1180.83 286.427C1180.7 285.938 1180.68 285.404 1180.78 284.906Z" fill="#01579B" fill-opacity="0.3"/>
<path d="M1191.19 592.429C1192.1 587.802 1197.3 587.586 1198.5 592.126C1198.63 592.615 1198.65 593.148 1198.55 593.647C1197.64 598.274 1192.44 598.491 1191.24 593.95C1191.11 593.462 1191.09 592.928 1191.19 592.429Z" fill="#01579B" fill-opacity="0.3"/>
<path d="M622.482 33.2773C623.393 28.6485 628.597 28.4337 629.796 32.9742C629.926 33.4627 629.942 33.9962 629.844 34.4952C628.933 39.1223 623.731 39.3371 622.531 34.8C622.401 34.3098 622.384 33.7745 622.482 33.2773Z" fill="#01579B" fill-opacity="0.3"/>
<path d="M899.199 71.0274C900.11 66.4003 905.313 66.1838 906.513 70.7242C906.642 71.2128 906.659 71.7463 906.561 72.2452C905.65 76.8723 900.448 77.0889 899.247 72.5484C899.118 72.0581 899.101 71.5246 899.199 71.0274Z" fill="#01579B" fill-opacity="0.3"/>
</g>
</g>
</svg>
